<mxfile host="app.diagrams.net" modified="2023-11-12T11:51:48.486Z" agent="Mozilla/5.0 (Windows NT 10.0; Win64; x64) AppleWebKit/537.36 (KHTML, like Gecko) Chrome/119.0.0.0 Safari/537.36" etag="14NYxnqXWzNw25ZlwNbM" version="22.1.0" type="github">
  <diagram name="Page-1" id="-Xc6EeOIjrptHWJ5mNu8">
    <mxGraphModel dx="1290" dy="534" grid="1" gridSize="10" guides="1" tooltips="1" connect="1" arrows="1" fold="1" page="1" pageScale="1" pageWidth="827" pageHeight="1169" math="0" shadow="0">
      <root>
        <mxCell id="0" />
        <mxCell id="1" parent="0" />
        <mxCell id="P0bgIa3_dCRbjvqC2Djv-3" value="" style="edgeStyle=orthogonalEdgeStyle;rounded=0;orthogonalLoop=1;jettySize=auto;html=1;" parent="1" source="eii6ioJTacmF4yy5u-Xr-1" target="P0bgIa3_dCRbjvqC2Djv-2" edge="1">
          <mxGeometry relative="1" as="geometry" />
        </mxCell>
        <mxCell id="eii6ioJTacmF4yy5u-Xr-1" value="START" style="ellipse;whiteSpace=wrap;html=1;fillColor=#FFFF99;" parent="1" vertex="1">
          <mxGeometry x="340" y="40" width="120" height="80" as="geometry" />
        </mxCell>
        <mxCell id="P0bgIa3_dCRbjvqC2Djv-12" value="" style="edgeStyle=orthogonalEdgeStyle;rounded=0;orthogonalLoop=1;jettySize=auto;html=1;" parent="1" source="P0bgIa3_dCRbjvqC2Djv-2" target="P0bgIa3_dCRbjvqC2Djv-4" edge="1">
          <mxGeometry relative="1" as="geometry" />
        </mxCell>
        <mxCell id="P0bgIa3_dCRbjvqC2Djv-2" value="- cerco le directory con nome &quot;gr0-9][0-9]_lab01&quot; nel path corrente&lt;br&gt;- creo il vettore &quot;vector_d&quot; con il path delle directory trovate&lt;br&gt;- ordino il vettore &quot;vector_d&quot;&lt;br&gt;- lenght_v = numero di elementi di &quot;vector_d&quot;&lt;br&gt;- l_v = indice dell&#39;ultimo elemento di &quot;vector_d&quot;" style="rounded=0;whiteSpace=wrap;html=1;fillColor=#E6E6E6;" parent="1" vertex="1">
          <mxGeometry x="220" y="150" width="360" height="100" as="geometry" />
        </mxCell>
        <mxCell id="P0bgIa3_dCRbjvqC2Djv-7" value="" style="edgeStyle=orthogonalEdgeStyle;rounded=0;orthogonalLoop=1;jettySize=auto;html=1;" parent="1" source="P0bgIa3_dCRbjvqC2Djv-4" target="P0bgIa3_dCRbjvqC2Djv-6" edge="1">
          <mxGeometry relative="1" as="geometry" />
        </mxCell>
        <mxCell id="P0bgIa3_dCRbjvqC2Djv-14" style="edgeStyle=orthogonalEdgeStyle;rounded=0;orthogonalLoop=1;jettySize=auto;html=1;entryX=0.5;entryY=0;entryDx=0;entryDy=0;" parent="1" source="P0bgIa3_dCRbjvqC2Djv-4" target="P0bgIa3_dCRbjvqC2Djv-5" edge="1">
          <mxGeometry relative="1" as="geometry" />
        </mxCell>
        <mxCell id="P0bgIa3_dCRbjvqC2Djv-4" value="esiste il file &quot;report.txt&quot;?" style="rhombus;whiteSpace=wrap;html=1;fillColor=#99FFFF;" parent="1" vertex="1">
          <mxGeometry x="280" y="280" width="240" height="80" as="geometry" />
        </mxCell>
        <mxCell id="P0bgIa3_dCRbjvqC2Djv-9" style="edgeStyle=orthogonalEdgeStyle;rounded=0;orthogonalLoop=1;jettySize=auto;html=1;" parent="1" edge="1">
          <mxGeometry relative="1" as="geometry">
            <mxPoint x="400" y="450" as="targetPoint" />
            <mxPoint x="625" y="420" as="sourcePoint" />
            <Array as="points">
              <mxPoint x="625" y="450" />
            </Array>
          </mxGeometry>
        </mxCell>
        <mxCell id="P0bgIa3_dCRbjvqC2Djv-5" value="rimuovi file &quot;report.txt&quot;" style="rounded=0;whiteSpace=wrap;html=1;fillColor=#E6E6E6;" parent="1" vertex="1">
          <mxGeometry x="570" y="360" width="150" height="60" as="geometry" />
        </mxCell>
        <mxCell id="P0bgIa3_dCRbjvqC2Djv-19" value="" style="edgeStyle=orthogonalEdgeStyle;rounded=0;orthogonalLoop=1;jettySize=auto;html=1;" parent="1" source="P0bgIa3_dCRbjvqC2Djv-6" target="P0bgIa3_dCRbjvqC2Djv-18" edge="1">
          <mxGeometry relative="1" as="geometry" />
        </mxCell>
        <mxCell id="P0bgIa3_dCRbjvqC2Djv-6" value="- crea il file &quot;report.txt&quot;&lt;br&gt;- i = 0" style="rounded=0;whiteSpace=wrap;html=1;fillColor=#E6E6E6;" parent="1" vertex="1">
          <mxGeometry x="325" y="470" width="150" height="60" as="geometry" />
        </mxCell>
        <mxCell id="P0bgIa3_dCRbjvqC2Djv-10" value="yes" style="text;html=1;strokeColor=none;fillColor=none;align=center;verticalAlign=middle;whiteSpace=wrap;rounded=0;" parent="1" vertex="1">
          <mxGeometry x="510" y="320" width="60" height="30" as="geometry" />
        </mxCell>
        <mxCell id="P0bgIa3_dCRbjvqC2Djv-15" value="no" style="text;html=1;strokeColor=none;fillColor=none;align=center;verticalAlign=middle;whiteSpace=wrap;rounded=0;" parent="1" vertex="1">
          <mxGeometry x="360" y="630" width="60" height="30" as="geometry" />
        </mxCell>
        <mxCell id="P0bgIa3_dCRbjvqC2Djv-21" value="" style="edgeStyle=orthogonalEdgeStyle;rounded=0;orthogonalLoop=1;jettySize=auto;html=1;" parent="1" source="P0bgIa3_dCRbjvqC2Djv-18" target="P0bgIa3_dCRbjvqC2Djv-20" edge="1">
          <mxGeometry relative="1" as="geometry" />
        </mxCell>
        <mxCell id="P0bgIa3_dCRbjvqC2Djv-25" style="edgeStyle=orthogonalEdgeStyle;rounded=0;orthogonalLoop=1;jettySize=auto;html=1;entryX=0.5;entryY=0;entryDx=0;entryDy=0;" parent="1" source="P0bgIa3_dCRbjvqC2Djv-18" target="vS-EUthec1XFLsrf223l-83" edge="1">
          <mxGeometry relative="1" as="geometry">
            <mxPoint x="760" y="740" as="targetPoint" />
          </mxGeometry>
        </mxCell>
        <mxCell id="P0bgIa3_dCRbjvqC2Djv-18" value="i = l_v" style="rhombus;whiteSpace=wrap;html=1;fillColor=#99FFFF;" parent="1" vertex="1">
          <mxGeometry x="285" y="560" width="230" height="80" as="geometry" />
        </mxCell>
        <mxCell id="P0bgIa3_dCRbjvqC2Djv-36" value="" style="edgeStyle=orthogonalEdgeStyle;rounded=0;orthogonalLoop=1;jettySize=auto;html=1;" parent="1" source="P0bgIa3_dCRbjvqC2Djv-20" target="P0bgIa3_dCRbjvqC2Djv-27" edge="1">
          <mxGeometry relative="1" as="geometry" />
        </mxCell>
        <mxCell id="P0bgIa3_dCRbjvqC2Djv-20" value="numg = i + 1" style="rounded=0;whiteSpace=wrap;html=1;fillColor=#E6E6E6;" parent="1" vertex="1">
          <mxGeometry x="305" y="670" width="190" height="60" as="geometry" />
        </mxCell>
        <mxCell id="P0bgIa3_dCRbjvqC2Djv-22" value="no" style="text;html=1;strokeColor=none;fillColor=none;align=center;verticalAlign=middle;whiteSpace=wrap;rounded=0;" parent="1" vertex="1">
          <mxGeometry x="360" y="370" width="60" height="30" as="geometry" />
        </mxCell>
        <mxCell id="P0bgIa3_dCRbjvqC2Djv-23" value="yes" style="text;html=1;strokeColor=none;fillColor=none;align=center;verticalAlign=middle;whiteSpace=wrap;rounded=0;" parent="1" vertex="1">
          <mxGeometry x="495" y="590" width="60" height="30" as="geometry" />
        </mxCell>
        <mxCell id="P0bgIa3_dCRbjvqC2Djv-30" style="edgeStyle=orthogonalEdgeStyle;rounded=0;orthogonalLoop=1;jettySize=auto;html=1;entryX=0.5;entryY=0;entryDx=0;entryDy=0;" parent="1" source="P0bgIa3_dCRbjvqC2Djv-27" target="P0bgIa3_dCRbjvqC2Djv-29" edge="1">
          <mxGeometry relative="1" as="geometry">
            <Array as="points">
              <mxPoint x="528" y="820" />
              <mxPoint x="528" y="850" />
            </Array>
          </mxGeometry>
        </mxCell>
        <mxCell id="P0bgIa3_dCRbjvqC2Djv-31" style="edgeStyle=orthogonalEdgeStyle;rounded=0;orthogonalLoop=1;jettySize=auto;html=1;entryX=0.5;entryY=0;entryDx=0;entryDy=0;" parent="1" source="P0bgIa3_dCRbjvqC2Djv-27" target="P0bgIa3_dCRbjvqC2Djv-28" edge="1">
          <mxGeometry relative="1" as="geometry">
            <Array as="points">
              <mxPoint x="263" y="820" />
              <mxPoint x="263" y="850" />
            </Array>
          </mxGeometry>
        </mxCell>
        <mxCell id="P0bgIa3_dCRbjvqC2Djv-27" value="numg &amp;lt; 10" style="rhombus;whiteSpace=wrap;html=1;fillColor=#99FFFF;" parent="1" vertex="1">
          <mxGeometry x="315" y="760" width="170" height="80" as="geometry" />
        </mxCell>
        <mxCell id="vS-EUthec1XFLsrf223l-2" style="edgeStyle=orthogonalEdgeStyle;rounded=0;orthogonalLoop=1;jettySize=auto;html=1;entryX=0.5;entryY=0;entryDx=0;entryDy=0;" parent="1" source="P0bgIa3_dCRbjvqC2Djv-28" target="vS-EUthec1XFLsrf223l-1" edge="1">
          <mxGeometry relative="1" as="geometry" />
        </mxCell>
        <mxCell id="P0bgIa3_dCRbjvqC2Djv-28" value="sul file &quot;report.txt&quot; scrivi &quot;gr0$numg&quot;" style="shape=parallelogram;perimeter=parallelogramPerimeter;whiteSpace=wrap;html=1;fixedSize=1;fillColor=#FF99FF;" parent="1" vertex="1">
          <mxGeometry x="175" y="870" width="175" height="60" as="geometry" />
        </mxCell>
        <mxCell id="P0bgIa3_dCRbjvqC2Djv-29" value="sul file &quot;report.txt&quot; scrivi &quot;gr$numg&quot;" style="shape=parallelogram;perimeter=parallelogramPerimeter;whiteSpace=wrap;html=1;fixedSize=1;fillColor=#FF99FF;" parent="1" vertex="1">
          <mxGeometry x="440" y="870" width="175" height="60" as="geometry" />
        </mxCell>
        <mxCell id="P0bgIa3_dCRbjvqC2Djv-32" value="yes" style="text;html=1;strokeColor=none;fillColor=none;align=center;verticalAlign=middle;whiteSpace=wrap;rounded=0;" parent="1" vertex="1">
          <mxGeometry x="315" y="810" width="60" height="30" as="geometry" />
        </mxCell>
        <mxCell id="P0bgIa3_dCRbjvqC2Djv-35" value="no" style="text;html=1;strokeColor=none;fillColor=none;align=center;verticalAlign=middle;whiteSpace=wrap;rounded=0;" parent="1" vertex="1">
          <mxGeometry x="425" y="810" width="60" height="30" as="geometry" />
        </mxCell>
        <mxCell id="vS-EUthec1XFLsrf223l-4" style="edgeStyle=orthogonalEdgeStyle;rounded=0;orthogonalLoop=1;jettySize=auto;html=1;entryX=0.5;entryY=0;entryDx=0;entryDy=0;" parent="1" source="vS-EUthec1XFLsrf223l-1" target="vS-EUthec1XFLsrf223l-75" edge="1">
          <mxGeometry relative="1" as="geometry">
            <mxPoint x="630" y="1010" as="targetPoint" />
          </mxGeometry>
        </mxCell>
        <mxCell id="vS-EUthec1XFLsrf223l-9" value="" style="edgeStyle=orthogonalEdgeStyle;rounded=0;orthogonalLoop=1;jettySize=auto;html=1;" parent="1" source="vS-EUthec1XFLsrf223l-1" target="vS-EUthec1XFLsrf223l-8" edge="1">
          <mxGeometry relative="1" as="geometry" />
        </mxCell>
        <mxCell id="vS-EUthec1XFLsrf223l-1" value="esiste la directory &quot;es02&quot;?" style="rhombus;whiteSpace=wrap;html=1;fillColor=#99FFFF;" parent="1" vertex="1">
          <mxGeometry x="292.5" y="970" width="215" height="80" as="geometry" />
        </mxCell>
        <mxCell id="vS-EUthec1XFLsrf223l-3" style="edgeStyle=orthogonalEdgeStyle;rounded=0;orthogonalLoop=1;jettySize=auto;html=1;entryX=0.5;entryY=0;entryDx=0;entryDy=0;" parent="1" target="vS-EUthec1XFLsrf223l-1" edge="1">
          <mxGeometry relative="1" as="geometry">
            <mxPoint x="529.976644295302" y="930" as="sourcePoint" />
            <mxPoint x="402.48" y="970" as="targetPoint" />
            <Array as="points">
              <mxPoint x="530" y="950" />
              <mxPoint x="400" y="950" />
            </Array>
          </mxGeometry>
        </mxCell>
        <mxCell id="vS-EUthec1XFLsrf223l-5" value="no" style="text;html=1;strokeColor=none;fillColor=none;align=center;verticalAlign=middle;whiteSpace=wrap;rounded=0;" parent="1" vertex="1">
          <mxGeometry x="485" y="1110" width="60" height="30" as="geometry" />
        </mxCell>
        <mxCell id="vS-EUthec1XFLsrf223l-7" value="yes" style="text;html=1;strokeColor=none;fillColor=none;align=center;verticalAlign=middle;whiteSpace=wrap;rounded=0;" parent="1" vertex="1">
          <mxGeometry x="354" y="1040" width="60" height="30" as="geometry" />
        </mxCell>
        <mxCell id="vS-EUthec1XFLsrf223l-12" style="edgeStyle=orthogonalEdgeStyle;rounded=0;orthogonalLoop=1;jettySize=auto;html=1;entryX=0.5;entryY=0;entryDx=0;entryDy=0;" parent="1" source="vS-EUthec1XFLsrf223l-8" target="vS-EUthec1XFLsrf223l-74" edge="1">
          <mxGeometry relative="1" as="geometry">
            <mxPoint x="1220" y="2023.9999389648438" as="targetPoint" />
          </mxGeometry>
        </mxCell>
        <mxCell id="vS-EUthec1XFLsrf223l-17" value="" style="edgeStyle=orthogonalEdgeStyle;rounded=0;orthogonalLoop=1;jettySize=auto;html=1;" parent="1" source="vS-EUthec1XFLsrf223l-8" target="vS-EUthec1XFLsrf223l-16" edge="1">
          <mxGeometry relative="1" as="geometry" />
        </mxCell>
        <mxCell id="vS-EUthec1XFLsrf223l-8" value="esiste il file &quot;es02.sh&quot; dentro alla directory &quot;es02&quot;?" style="rhombus;whiteSpace=wrap;html=1;fillColor=#99FFFF;" parent="1" vertex="1">
          <mxGeometry x="292.5" y="1080" width="215" height="80" as="geometry" />
        </mxCell>
        <mxCell id="vS-EUthec1XFLsrf223l-13" value="no" style="text;html=1;strokeColor=none;fillColor=none;align=center;verticalAlign=middle;whiteSpace=wrap;rounded=0;" parent="1" vertex="1">
          <mxGeometry x="485" y="1000" width="60" height="30" as="geometry" />
        </mxCell>
        <mxCell id="vS-EUthec1XFLsrf223l-21" value="" style="edgeStyle=orthogonalEdgeStyle;rounded=0;orthogonalLoop=1;jettySize=auto;html=1;" parent="1" source="vS-EUthec1XFLsrf223l-16" target="vS-EUthec1XFLsrf223l-20" edge="1">
          <mxGeometry relative="1" as="geometry">
            <Array as="points">
              <mxPoint x="190" y="1260" />
            </Array>
          </mxGeometry>
        </mxCell>
        <mxCell id="vS-EUthec1XFLsrf223l-30" style="edgeStyle=orthogonalEdgeStyle;rounded=0;orthogonalLoop=1;jettySize=auto;html=1;entryX=0.5;entryY=0;entryDx=0;entryDy=0;" parent="1" source="vS-EUthec1XFLsrf223l-16" target="vS-EUthec1XFLsrf223l-24" edge="1">
          <mxGeometry relative="1" as="geometry">
            <Array as="points">
              <mxPoint x="603" y="1260" />
            </Array>
          </mxGeometry>
        </mxCell>
        <mxCell id="vS-EUthec1XFLsrf223l-16" value="esiste il file &quot;host.txt&quot; dentro alla directory &quot;es02&quot;?" style="rhombus;whiteSpace=wrap;html=1;fillColor=#99FFFF;" parent="1" vertex="1">
          <mxGeometry x="292.5" y="1190" width="215" height="80" as="geometry" />
        </mxCell>
        <mxCell id="vS-EUthec1XFLsrf223l-18" value="yes" style="text;html=1;strokeColor=none;fillColor=none;align=center;verticalAlign=middle;whiteSpace=wrap;rounded=0;" parent="1" vertex="1">
          <mxGeometry x="354" y="1150" width="60" height="30" as="geometry" />
        </mxCell>
        <mxCell id="vS-EUthec1XFLsrf223l-31" value="" style="edgeStyle=orthogonalEdgeStyle;rounded=0;orthogonalLoop=1;jettySize=auto;html=1;" parent="1" source="vS-EUthec1XFLsrf223l-20" target="vS-EUthec1XFLsrf223l-29" edge="1">
          <mxGeometry relative="1" as="geometry" />
        </mxCell>
        <mxCell id="vS-EUthec1XFLsrf223l-36" style="edgeStyle=orthogonalEdgeStyle;rounded=0;orthogonalLoop=1;jettySize=auto;html=1;" parent="1" source="vS-EUthec1XFLsrf223l-20" edge="1">
          <mxGeometry relative="1" as="geometry">
            <mxPoint x="400" y="1530" as="targetPoint" />
            <Array as="points">
              <mxPoint x="400" y="1370" />
            </Array>
          </mxGeometry>
        </mxCell>
        <mxCell id="vS-EUthec1XFLsrf223l-20" value="differenze tra il file &quot;host.txt&quot; &lt;br&gt;nella directory &quot;es02&quot;e il mio file &quot;host.txt&quot; &lt;br&gt;di esempio?" style="rhombus;whiteSpace=wrap;html=1;fillColor=#99FFFF;" parent="1" vertex="1">
          <mxGeometry x="55" y="1290" width="270" height="100" as="geometry" />
        </mxCell>
        <mxCell id="vS-EUthec1XFLsrf223l-22" value="yes" style="text;html=1;strokeColor=none;fillColor=none;align=center;verticalAlign=middle;whiteSpace=wrap;rounded=0;" parent="1" vertex="1">
          <mxGeometry x="170" y="1380" width="60" height="30" as="geometry" />
        </mxCell>
        <mxCell id="vS-EUthec1XFLsrf223l-35" style="edgeStyle=orthogonalEdgeStyle;rounded=0;orthogonalLoop=1;jettySize=auto;html=1;entryX=0.5;entryY=0;entryDx=0;entryDy=0;" parent="1" source="vS-EUthec1XFLsrf223l-24" target="vS-EUthec1XFLsrf223l-32" edge="1">
          <mxGeometry relative="1" as="geometry">
            <Array as="points">
              <mxPoint x="603" y="1500" />
              <mxPoint x="400" y="1500" />
            </Array>
          </mxGeometry>
        </mxCell>
        <mxCell id="vS-EUthec1XFLsrf223l-24" value="trascrivi il mio file &quot;host.txt&quot; al posto dell&#39;ononimo file nella directory &quot;es02&quot;" style="whiteSpace=wrap;html=1;fillColor=#E6E6E6;" parent="1" vertex="1">
          <mxGeometry x="507.5" y="1320" width="190" height="60" as="geometry" />
        </mxCell>
        <mxCell id="vS-EUthec1XFLsrf223l-28" value="yes" style="text;html=1;strokeColor=none;fillColor=none;align=center;verticalAlign=middle;whiteSpace=wrap;rounded=0;" parent="1" vertex="1">
          <mxGeometry x="325" y="1260" width="60" height="30" as="geometry" />
        </mxCell>
        <mxCell id="vS-EUthec1XFLsrf223l-33" value="" style="edgeStyle=orthogonalEdgeStyle;rounded=0;orthogonalLoop=1;jettySize=auto;html=1;" parent="1" source="vS-EUthec1XFLsrf223l-29" target="vS-EUthec1XFLsrf223l-32" edge="1">
          <mxGeometry relative="1" as="geometry">
            <Array as="points">
              <mxPoint x="190" y="1500" />
              <mxPoint x="400" y="1500" />
            </Array>
          </mxGeometry>
        </mxCell>
        <mxCell id="vS-EUthec1XFLsrf223l-29" value="trascrivi il mio file &quot;host.txt&quot; al posto dell&#39;ononimo file nella directory &quot;es02&quot;" style="whiteSpace=wrap;html=1;fillColor=#E6E6E6;" parent="1" vertex="1">
          <mxGeometry x="95" y="1420" width="190" height="60" as="geometry" />
        </mxCell>
        <mxCell id="vS-EUthec1XFLsrf223l-41" value="" style="edgeStyle=orthogonalEdgeStyle;rounded=0;orthogonalLoop=1;jettySize=auto;html=1;" parent="1" source="vS-EUthec1XFLsrf223l-32" target="vS-EUthec1XFLsrf223l-40" edge="1">
          <mxGeometry relative="1" as="geometry" />
        </mxCell>
        <mxCell id="vS-EUthec1XFLsrf223l-32" value="- entra nella directory &quot;es02&quot; del gruppo che stai esaminando&lt;br&gt;- nella directory elimina tutti i file che non sono &quot;es02.sh&quot; o &quot;host.txt&quot;" style="whiteSpace=wrap;html=1;fillColor=#E6E6E6;" parent="1" vertex="1">
          <mxGeometry x="280" y="1530" width="240" height="60" as="geometry" />
        </mxCell>
        <mxCell id="vS-EUthec1XFLsrf223l-37" value="no" style="text;html=1;strokeColor=none;fillColor=none;align=center;verticalAlign=middle;whiteSpace=wrap;rounded=0;" parent="1" vertex="1">
          <mxGeometry x="425" y="1260" width="60" height="30" as="geometry" />
        </mxCell>
        <mxCell id="vS-EUthec1XFLsrf223l-39" value="no" style="text;html=1;strokeColor=none;fillColor=none;align=center;verticalAlign=middle;whiteSpace=wrap;rounded=0;" parent="1" vertex="1">
          <mxGeometry x="232.5" y="1360" width="60" height="30" as="geometry" />
        </mxCell>
        <mxCell id="vS-EUthec1XFLsrf223l-45" style="edgeStyle=orthogonalEdgeStyle;rounded=0;orthogonalLoop=1;jettySize=auto;html=1;entryX=0.25;entryY=0;entryDx=0;entryDy=0;" parent="1" edge="1">
          <mxGeometry relative="1" as="geometry">
            <mxPoint x="412.5" y="1690" as="sourcePoint" />
            <mxPoint x="292.5" y="1724" as="targetPoint" />
            <Array as="points">
              <mxPoint x="292.25" y="1690" />
            </Array>
          </mxGeometry>
        </mxCell>
        <mxCell id="vS-EUthec1XFLsrf223l-49" style="edgeStyle=orthogonalEdgeStyle;rounded=0;orthogonalLoop=1;jettySize=auto;html=1;entryX=0.5;entryY=0;entryDx=0;entryDy=0;" parent="1" source="vS-EUthec1XFLsrf223l-40" target="vS-EUthec1XFLsrf223l-47" edge="1">
          <mxGeometry relative="1" as="geometry">
            <Array as="points">
              <mxPoint x="460" y="1810" />
              <mxPoint x="400" y="1810" />
              <mxPoint x="400" y="1840" />
            </Array>
          </mxGeometry>
        </mxCell>
        <mxCell id="vS-EUthec1XFLsrf223l-40" value="il file &quot;es02.sh&quot; ha i permessi di esecuzione?" style="rhombus;whiteSpace=wrap;html=1;fillColor=#99FFFF;" parent="1" vertex="1">
          <mxGeometry x="285" y="1620" width="230" height="80" as="geometry" />
        </mxCell>
        <mxCell id="vS-EUthec1XFLsrf223l-48" value="" style="edgeStyle=orthogonalEdgeStyle;rounded=0;orthogonalLoop=1;jettySize=auto;html=1;" parent="1" source="vS-EUthec1XFLsrf223l-42" target="vS-EUthec1XFLsrf223l-47" edge="1">
          <mxGeometry relative="1" as="geometry">
            <Array as="points">
              <mxPoint x="293" y="1810" />
              <mxPoint x="400" y="1810" />
            </Array>
          </mxGeometry>
        </mxCell>
        <mxCell id="vS-EUthec1XFLsrf223l-42" value="aggiungi permessi di esecuzione al file &quot;es02.sh&quot;" style="whiteSpace=wrap;html=1;fillColor=#E6E6E6;" parent="1" vertex="1">
          <mxGeometry x="210" y="1724" width="165" height="60" as="geometry" />
        </mxCell>
        <mxCell id="vS-EUthec1XFLsrf223l-46" value="no" style="text;html=1;strokeColor=none;fillColor=none;align=center;verticalAlign=middle;whiteSpace=wrap;rounded=0;" parent="1" vertex="1">
          <mxGeometry x="305" y="1680" width="60" height="30" as="geometry" />
        </mxCell>
        <mxCell id="vS-EUthec1XFLsrf223l-52" value="" style="edgeStyle=orthogonalEdgeStyle;rounded=0;orthogonalLoop=1;jettySize=auto;html=1;" parent="1" source="vS-EUthec1XFLsrf223l-47" target="vS-EUthec1XFLsrf223l-51" edge="1">
          <mxGeometry relative="1" as="geometry" />
        </mxCell>
        <mxCell id="vS-EUthec1XFLsrf223l-47" value="esegui file &quot;es02.sh&quot;" style="whiteSpace=wrap;html=1;fillColor=#E6E6E6;" parent="1" vertex="1">
          <mxGeometry x="322.5" y="1830" width="155" height="50" as="geometry" />
        </mxCell>
        <mxCell id="vS-EUthec1XFLsrf223l-50" value="yes" style="text;html=1;strokeColor=none;fillColor=none;align=center;verticalAlign=middle;whiteSpace=wrap;rounded=0;" parent="1" vertex="1">
          <mxGeometry x="447.5" y="1670" width="60" height="30" as="geometry" />
        </mxCell>
        <mxCell id="vS-EUthec1XFLsrf223l-55" style="edgeStyle=orthogonalEdgeStyle;rounded=0;orthogonalLoop=1;jettySize=auto;html=1;entryX=0.5;entryY=0;entryDx=0;entryDy=0;exitX=0;exitY=1;exitDx=0;exitDy=0;" parent="1" source="vS-EUthec1XFLsrf223l-51" target="vS-EUthec1XFLsrf223l-53" edge="1">
          <mxGeometry relative="1" as="geometry">
            <mxPoint x="240" y="1990" as="targetPoint" />
            <Array as="points">
              <mxPoint x="292" y="1970" />
            </Array>
          </mxGeometry>
        </mxCell>
        <mxCell id="vS-EUthec1XFLsrf223l-57" style="edgeStyle=orthogonalEdgeStyle;rounded=0;orthogonalLoop=1;jettySize=auto;html=1;entryX=0.5;entryY=0;entryDx=0;entryDy=0;" parent="1" source="vS-EUthec1XFLsrf223l-51" target="vS-EUthec1XFLsrf223l-73" edge="1">
          <mxGeometry relative="1" as="geometry">
            <mxPoint x="760" y="2080" as="targetPoint" />
            <Array as="points">
              <mxPoint x="805" y="1970" />
            </Array>
          </mxGeometry>
        </mxCell>
        <mxCell id="vS-EUthec1XFLsrf223l-51" value="nella directoy &quot;es02&quot; del &lt;br&gt;gruppo in questione esiste il file &lt;br&gt;&quot;hostRename.txt&quot;?" style="rhombus;whiteSpace=wrap;html=1;fillColor=#99FFFF;" parent="1" vertex="1">
          <mxGeometry x="259.38" y="1910" width="281.25" height="80" as="geometry" />
        </mxCell>
        <mxCell id="vS-EUthec1XFLsrf223l-61" value="" style="edgeStyle=orthogonalEdgeStyle;rounded=0;orthogonalLoop=1;jettySize=auto;html=1;" parent="1" source="vS-EUthec1XFLsrf223l-53" target="vS-EUthec1XFLsrf223l-60" edge="1">
          <mxGeometry relative="1" as="geometry" />
        </mxCell>
        <mxCell id="vS-EUthec1XFLsrf223l-53" value="- diff_v = numero di righe differenti tra il file &quot;hostRename.txt&quot; appena generato e il mio modello del file&lt;br&gt;- corr = numero di righe corrette nel file &quot;hostRenamed.txt&quot; nella directory del gruppo (6-diff_v)" style="rounded=0;whiteSpace=wrap;html=1;fillColor=#E6E6E6;" parent="1" vertex="1">
          <mxGeometry x="132.5" y="2010" width="320" height="100" as="geometry" />
        </mxCell>
        <mxCell id="vS-EUthec1XFLsrf223l-56" value="yes" style="text;html=1;strokeColor=none;fillColor=none;align=center;verticalAlign=middle;whiteSpace=wrap;rounded=0;" parent="1" vertex="1">
          <mxGeometry x="262.5" y="2210" width="60" height="30" as="geometry" />
        </mxCell>
        <mxCell id="vS-EUthec1XFLsrf223l-58" value="no" style="text;html=1;strokeColor=none;fillColor=none;align=center;verticalAlign=middle;whiteSpace=wrap;rounded=0;" parent="1" vertex="1">
          <mxGeometry x="370.01" y="2210" width="60" height="30" as="geometry" />
        </mxCell>
        <mxCell id="vS-EUthec1XFLsrf223l-63" value="" style="edgeStyle=orthogonalEdgeStyle;rounded=0;orthogonalLoop=1;jettySize=auto;html=1;" parent="1" source="vS-EUthec1XFLsrf223l-60" target="vS-EUthec1XFLsrf223l-62" edge="1">
          <mxGeometry relative="1" as="geometry">
            <Array as="points">
              <mxPoint x="210" y="2220" />
            </Array>
          </mxGeometry>
        </mxCell>
        <mxCell id="vS-EUthec1XFLsrf223l-69" style="edgeStyle=orthogonalEdgeStyle;rounded=0;orthogonalLoop=1;jettySize=auto;html=1;entryX=0.5;entryY=0;entryDx=0;entryDy=0;" parent="1" source="vS-EUthec1XFLsrf223l-60" target="vS-EUthec1XFLsrf223l-68" edge="1">
          <mxGeometry relative="1" as="geometry">
            <Array as="points">
              <mxPoint x="500" y="2220" />
            </Array>
          </mxGeometry>
        </mxCell>
        <mxCell id="vS-EUthec1XFLsrf223l-60" value="diff_v = 0?" style="rhombus;whiteSpace=wrap;html=1;rounded=0;fillColor=#99FFFF;" parent="1" vertex="1">
          <mxGeometry x="259.38" y="2150" width="175" height="80" as="geometry" />
        </mxCell>
        <mxCell id="vS-EUthec1XFLsrf223l-81" style="edgeStyle=orthogonalEdgeStyle;rounded=0;orthogonalLoop=1;jettySize=auto;html=1;" parent="1" source="vS-EUthec1XFLsrf223l-62" target="vS-EUthec1XFLsrf223l-76" edge="1">
          <mxGeometry relative="1" as="geometry">
            <Array as="points">
              <mxPoint x="218" y="2450" />
              <mxPoint x="805" y="2450" />
            </Array>
          </mxGeometry>
        </mxCell>
        <mxCell id="vS-EUthec1XFLsrf223l-62" value="sul file &quot;report.txt&quot; scrivi &quot;OK. \n&quot;" style="shape=parallelogram;perimeter=parallelogramPerimeter;whiteSpace=wrap;html=1;fixedSize=1;rounded=0;fillColor=#FF99FF;" parent="1" vertex="1">
          <mxGeometry x="112.5" y="2350" width="210" height="60" as="geometry" />
        </mxCell>
        <mxCell id="vS-EUthec1XFLsrf223l-66" value="yes" style="text;html=1;strokeColor=none;fillColor=none;align=center;verticalAlign=middle;whiteSpace=wrap;rounded=0;" parent="1" vertex="1">
          <mxGeometry x="280" y="1960" width="60" height="30" as="geometry" />
        </mxCell>
        <mxCell id="vS-EUthec1XFLsrf223l-71" value="" style="edgeStyle=orthogonalEdgeStyle;rounded=0;orthogonalLoop=1;jettySize=auto;html=1;" parent="1" source="vS-EUthec1XFLsrf223l-68" target="vS-EUthec1XFLsrf223l-70" edge="1">
          <mxGeometry relative="1" as="geometry" />
        </mxCell>
        <mxCell id="vS-EUthec1XFLsrf223l-68" value="PERCENTUALE = percentuale righe giuste rispetto al file modello" style="rounded=0;whiteSpace=wrap;html=1;fillColor=#E6E6E6;" parent="1" vertex="1">
          <mxGeometry x="400" y="2260" width="200" height="60" as="geometry" />
        </mxCell>
        <mxCell id="vS-EUthec1XFLsrf223l-78" style="edgeStyle=orthogonalEdgeStyle;rounded=0;orthogonalLoop=1;jettySize=auto;html=1;entryX=0.5;entryY=0;entryDx=0;entryDy=0;" parent="1" source="vS-EUthec1XFLsrf223l-70" target="vS-EUthec1XFLsrf223l-76" edge="1">
          <mxGeometry relative="1" as="geometry">
            <Array as="points">
              <mxPoint x="500" y="2450" />
              <mxPoint x="805" y="2450" />
            </Array>
          </mxGeometry>
        </mxCell>
        <mxCell id="vS-EUthec1XFLsrf223l-70" value="sul file &quot;report.txt&quot; scrivi &quot;KO Unmatched output&quot; seguito da PERCENTUALE e vai a capo&amp;nbsp;" style="shape=parallelogram;perimeter=parallelogramPerimeter;whiteSpace=wrap;html=1;fixedSize=1;rounded=0;fillColor=#FF99FF;" parent="1" vertex="1">
          <mxGeometry x="395" y="2350" width="210" height="60" as="geometry" />
        </mxCell>
        <mxCell id="vS-EUthec1XFLsrf223l-72" value="no" style="text;html=1;strokeColor=none;fillColor=none;align=center;verticalAlign=middle;whiteSpace=wrap;rounded=0;" parent="1" vertex="1">
          <mxGeometry x="455" y="1960" width="60" height="30" as="geometry" />
        </mxCell>
        <mxCell id="vS-EUthec1XFLsrf223l-77" value="" style="edgeStyle=orthogonalEdgeStyle;rounded=0;orthogonalLoop=1;jettySize=auto;html=1;" parent="1" source="vS-EUthec1XFLsrf223l-73" target="vS-EUthec1XFLsrf223l-76" edge="1">
          <mxGeometry relative="1" as="geometry" />
        </mxCell>
        <mxCell id="vS-EUthec1XFLsrf223l-73" value="sul file &quot;report.txt&quot; scrivi &quot;KO no es02/hostRenamed.txt was generated. \n&quot;" style="shape=parallelogram;perimeter=parallelogramPerimeter;whiteSpace=wrap;html=1;fixedSize=1;rounded=0;fillColor=#FF99FF;" parent="1" vertex="1">
          <mxGeometry x="680" y="2350" width="250" height="60" as="geometry" />
        </mxCell>
        <mxCell id="vS-EUthec1XFLsrf223l-79" style="edgeStyle=orthogonalEdgeStyle;rounded=0;orthogonalLoop=1;jettySize=auto;html=1;entryX=0.5;entryY=0;entryDx=0;entryDy=0;" parent="1" source="vS-EUthec1XFLsrf223l-74" target="vS-EUthec1XFLsrf223l-76" edge="1">
          <mxGeometry relative="1" as="geometry">
            <Array as="points">
              <mxPoint x="1135" y="2450" />
              <mxPoint x="805" y="2450" />
            </Array>
          </mxGeometry>
        </mxCell>
        <mxCell id="vS-EUthec1XFLsrf223l-74" value="sul file &quot;report.txt&quot; scrivi &quot;KO Missing &lt;br&gt;file es02/es02.sh.\n&quot;" style="shape=parallelogram;perimeter=parallelogramPerimeter;whiteSpace=wrap;html=1;fixedSize=1;rounded=0;fillColor=#FF99FF;" parent="1" vertex="1">
          <mxGeometry x="1010" y="2350" width="250" height="60" as="geometry" />
        </mxCell>
        <mxCell id="vS-EUthec1XFLsrf223l-80" style="edgeStyle=orthogonalEdgeStyle;rounded=0;orthogonalLoop=1;jettySize=auto;html=1;entryX=0.5;entryY=0;entryDx=0;entryDy=0;" parent="1" source="vS-EUthec1XFLsrf223l-75" target="vS-EUthec1XFLsrf223l-76" edge="1">
          <mxGeometry relative="1" as="geometry">
            <Array as="points">
              <mxPoint x="1465" y="2450" />
              <mxPoint x="805" y="2450" />
            </Array>
          </mxGeometry>
        </mxCell>
        <mxCell id="vS-EUthec1XFLsrf223l-75" value="sul file &quot;report.txt&quot; scrivi &quot;KO Missing &lt;br&gt;directory es02/. \n&quot;" style="shape=parallelogram;perimeter=parallelogramPerimeter;whiteSpace=wrap;html=1;fixedSize=1;rounded=0;fillColor=#FF99FF;" parent="1" vertex="1">
          <mxGeometry x="1340" y="2350" width="250" height="60" as="geometry" />
        </mxCell>
        <mxCell id="vS-EUthec1XFLsrf223l-82" style="edgeStyle=orthogonalEdgeStyle;rounded=0;orthogonalLoop=1;jettySize=auto;html=1;" parent="1" source="vS-EUthec1XFLsrf223l-76" edge="1">
          <mxGeometry relative="1" as="geometry">
            <mxPoint x="400" y="540" as="targetPoint" />
            <Array as="points">
              <mxPoint x="805" y="2570" />
              <mxPoint x="41" y="2570" />
              <mxPoint x="41" y="540" />
            </Array>
          </mxGeometry>
        </mxCell>
        <mxCell id="vS-EUthec1XFLsrf223l-76" value="i = i+1" style="rounded=0;whiteSpace=wrap;html=1;fillColor=#E6E6E6;" parent="1" vertex="1">
          <mxGeometry x="720" y="2480" width="170" height="60" as="geometry" />
        </mxCell>
        <mxCell id="vS-EUthec1XFLsrf223l-83" value="END" style="ellipse;whiteSpace=wrap;html=1;fillColor=#FFFF99;" parent="1" vertex="1">
          <mxGeometry x="930" y="660" width="120" height="80" as="geometry" />
        </mxCell>
      </root>
    </mxGraphModel>
  </diagram>
</mxfile>
